<svg id="Layer_1" data-name="Layer 1" xmlns="http://www.w3.org/2000/svg" viewBox="0 0 201 127"><defs><style>.cls-1{fill:#bc6464;}</style></defs><title>cloud2</title><path class="cls-1" d="M43.2,168.83a.5.5,0,0,0-.5.5v1a.5.5,0,0,0,1,0v-1A.5.5,0,0,0,43.2,168.83Z" transform="translate(-19.7 -43.82)"/><path class="cls-1" d="M220.7,130.82a30.5,30.5,0,0,1-30.5,30.5H52.2A30.5,30.5,0,0,1,21.81,133.4a34.14,34.14,0,0,1-2.12-11.83c0-17.2,12.92-31.85,31-37.39a40.5,40.5,0,0,1,76.79-17.83,40,40,0,0,1,57.94,18.15,38,38,0,0,1,34.26,37.82c0,.23,0,.45,0,.68A30.44,30.44,0,0,1,220.7,130.82Z" transform="translate(-19.7 -43.82)"/></svg>